<svg width="138" height="191" viewBox="0 0 138 191" fill="none" xmlns="http://www.w3.org/2000/svg">
<g id="onboarding_weibchen">
<g id="Group-10">
<path id="Path-7-Copy-34" d="M32.5912 108.348C7.93506 108.348 -15.1044 141.59 25.9351 161" stroke="#CFFF00" stroke-width="6" stroke-linecap="round"/>
<path id="Rectangle-2-Copy-8" fill-rule="evenodd" clip-rule="evenodd" d="M71.2854 102.488C76.9583 102.488 82.0942 104.788 85.8118 108.505C89.5294 112.223 91.8288 117.359 91.8288 123.032V180.755C91.8288 182.628 91.0699 184.323 89.8429 185.55C88.6158 186.777 86.9207 187.536 85.0483 187.536C64.9412 187.536 33.5608 187.536 33.5608 187.536C31.6884 187.536 29.9933 186.777 28.7662 185.55C27.5392 184.323 26.7803 182.628 26.7803 180.755V123.032C26.7803 117.359 29.0797 112.223 32.7973 108.505C36.5149 104.788 41.6508 102.488 47.3237 102.488H71.2854Z" stroke="#CFFF00" stroke-width="6"/>
<path id="Path-5-Copy-7" d="M28.7842 148.701H61.9212H91.4355" stroke="#CFFF00" stroke-width="6"/>
<path id="Path-7-Copy-35" d="M86.8285 109.196C130.097 122.253 125.847 69.0216 114.444 53.5154" stroke="#CFFF00" stroke-width="6" stroke-linecap="round"/>
</g>
<g id="Group-2">
<g id="Group-117-Copy-4">
<path id="Path-7-Copy-31" d="M47.5492 72.1232C50.5485 78.0263 56.1118 80.541 64.2393 79.6673" stroke="#CFFF00" stroke-width="6" stroke-linecap="round"/>
<ellipse id="Oval-5-Copy-10" cx="59.0559" cy="61.8249" rx="31.9455" ry="31.987" stroke="#CFFF00" stroke-width="6"/>
<path id="Oval-5-Copy-14" d="M72.1623 90.4169C88.0471 94.3483 107.141 85.4888 107.141 74.7244C107.141 48.2418 85.6983 26.7734 59.247 26.7734C32.7956 26.7734 11.3525 48.2418 11.3525 74.7244C11.3525 85.3549 28.7845 92.7724 47.1963 91.5467" stroke="#CFFF00" stroke-width="6"/>
<path id="Path-8-Copy-6" d="M33.6387 40.6865L91.4559 67.9318" stroke="#CFFF00" stroke-width="6"/>
<path id="Oval-Copy-8" fill-rule="evenodd" clip-rule="evenodd" d="M74.8343 25.4055C79.03 19.0104 82.6654 15.1195 86.0818 14.5164C88.4618 14.0962 90.7866 14.6819 92.6213 15.968C94.4574 17.2552 95.8028 19.244 96.2227 21.6286C96.6428 24.0139 96.0576 26.3439 94.7716 28.1828C93.4866 30.0201 91.5017 31.3671 89.1209 31.7874C85.7046 32.3905 80.9593 29.9786 74.8343 25.4055Z" stroke="#CFFF00" stroke-width="6"/>
<path id="Oval-Copy-9" fill-rule="evenodd" clip-rule="evenodd" d="M72.2209 24.3576C76.0067 17.7111 77.817 12.7015 76.8027 9.37999C76.0957 7.06471 74.5186 5.25519 72.5397 4.20174C70.5622 3.14905 68.1836 2.85155 65.8725 3.55893C63.5604 4.26666 61.754 5.84599 60.7021 7.8267C59.6494 9.80882 59.3521 12.193 60.0595 14.5094C61.0735 17.8301 65.3716 20.9689 72.2209 24.3576Z" stroke="#CFFF00" stroke-width="6"/>
</g>
</g>
</g>
</svg>
