<svg width="129" height="179" viewBox="0 0 129 179" fill="none" xmlns="http://www.w3.org/2000/svg">
<g id="onboarding_ma&#204;&#136;nnchen">
<path id="Path-7-Copy-34" d="M24.0825 86.0088C-3.49882 98.1407 -6.2564 143.978 34.4812 163.246" stroke="#CFFF00" stroke-width="6" stroke-linecap="round"/>
<path id="Rectangle" fill-rule="evenodd" clip-rule="evenodd" d="M42.463 47.2196C44.4282 46.9487 46.8481 49.2398 49.6159 49.8781C52.3837 50.5163 54.7361 47.9474 57.4407 49.7119C60.1453 51.4765 58.2425 59.784 54.649 61.138C51.0555 62.492 42.0351 61.2448 40.3282 56.9946C38.6212 52.7443 40.4978 47.4906 42.463 47.2196Z" stroke="#CFFF00" stroke-width="6"/>
<ellipse id="Oval-5-Copy-18" cx="51.8985" cy="38.6155" rx="32.7179" ry="32.5803" stroke="#CFFF00" stroke-width="6"/>
<path id="Path" d="M26.7061 19.3984C27.8398 19.923 35.323 27.959 48.517 22.6912C69.1022 14.4723 64.2565 46.8247 83.8472 33.3291" stroke="#CFFF00" stroke-width="6"/>
<path id="Rectangle-2-Copy-8" fill-rule="evenodd" clip-rule="evenodd" d="M62.4923 80.1934C68.1235 80.1934 73.2215 82.4758 76.9118 86.1661C80.6021 89.8564 82.8846 94.9545 82.8846 100.586V100.586V168.804C82.8846 170.663 82.1312 172.345 80.9132 173.563C79.6952 174.781 78.0126 175.535 76.1539 175.535V175.535H25.0451C23.1865 175.535 21.5038 174.781 20.2858 173.563C19.0678 172.345 18.3145 170.663 18.3145 168.804V168.804V100.586C18.3145 94.9545 20.5969 89.8564 24.2872 86.1661C27.9775 82.4758 33.0756 80.1934 38.7067 80.1934V80.1934H62.4923Z" stroke="#CFFF00" stroke-width="6"/>
<path id="Path-5-Copy-7" d="M20.3037 142.092H86.0903" stroke="#CFFF00" stroke-width="6"/>
<path id="Path-7-Copy-35" d="M77.9207 86.8512C120.871 99.8127 116.652 46.9726 105.333 31.5804" stroke="#CFFF00" stroke-width="6" stroke-linecap="round"/>
</g>
</svg>
